<?xml version="1.0" encoding="utf-8"?>
<!-- Generator: Adobe Illustrator 18.1.0, SVG Export Plug-In . SVG Version: 6.00 Build 0)  -->
<svg version="1.1" id="Layer_1" xmlns="http://www.w3.org/2000/svg" xmlns:xlink="http://www.w3.org/1999/xlink" x="0px" y="0px"
	 viewBox="0 0 612 792" enable-background="new 0 0 612 792" xml:space="preserve">
<g>
	<path fill="#FFFFFF" d="M209,287.7c-2.4,3-3.6,6.6-3.6,10.7c0,4.3,1.2,8,3.7,11.2c2.5,3.2,6.8,5.8,12.9,8v-37.5
		C215.8,282.2,211.4,284.7,209,287.7z"/>
	<path fill="#FFFFFF" d="M243.3,376.9v46.8c8.3-1.9,14.3-4.9,18.1-9.1c3.8-4.2,5.8-9,5.8-14.3c0-4.6-1.6-8.8-4.9-12.6
		C259.1,383.8,252.7,380.2,243.3,376.9z"/>
	<path fill="#FFFFFF" d="M552.5,194h-474C61.2,194,47,208.2,47,225.5v263c0,17.3,14.2,31.5,31.5,31.5h474
		c17.3,0,31.5-14.2,31.5-31.5v-263C584,208.2,569.8,194,552.5,194z M315.1,421.9c-4.7,8.8-10.7,16.2-18.1,22.2
		c-7.3,5.9-15.1,10.2-23.4,12.9c-8.3,2.7-18.4,4.3-30.3,4.7v27.5H222v-27.5c-14.3-1.3-25.9-3.6-34.8-6.9c-8.9-3.4-16.6-8-23-13.9
		c-6.5-5.9-11.4-12.3-14.9-19.2s-6.1-15.1-7.9-24.9l58.9-6.9c1.8,9.6,4.1,16.6,7.1,20.8c3,4.3,7.8,8.1,14.6,11.4v-51.5
		c-19.6-5.4-33.5-10.2-41.8-14.2c-8.2-4-15.3-10.4-21.4-19.2c-6-8.8-9-19.5-9-32.2c0-17.3,6-31.8,18.1-43.4
		c12.1-11.6,30.1-18.1,54-19.3v-14.4h21.3v14.4c21.8,1.4,38.4,6.5,49.9,15.5c11.5,8.9,19,21.2,22.5,36.7l-54.2,8.6
		c-2.7-6.9-5.2-11.7-7.4-14.4c-2.2-2.7-5.8-5.4-10.9-8.1V323c29.5,7.9,49.3,16.2,59.2,24.9c13.1,11.8,19.7,26.7,19.7,44.8
		C322.1,403.3,319.8,413.1,315.1,421.9z M539,384c0,6.6-5.4,12-12,12h-71c-6.6,0-12-5.4-12-12v-71c0-6.6,5.4-12,12-12h71
		c6.6,0,12,5.4,12,12V384z"/>
</g>
</svg>
