<?xml version="1.0" encoding="utf-8"?>
<!-- Generator: Adobe Illustrator 18.1.0, SVG Export Plug-In . SVG Version: 6.00 Build 0)  -->
<svg version="1.1" id="Layer_1" xmlns="http://www.w3.org/2000/svg" xmlns:xlink="http://www.w3.org/1999/xlink" x="0px" y="0px"
	 viewBox="-275 367 60 60" enable-background="new -275 367 60 60" xml:space="preserve">
<g>
	<path fill="#FFFFFF" d="M-221.1,383l-30-7.9c-0.4-0.1-0.9-0.2-1.3-0.2c-2.3,0-4.3,1.5-4.8,3.7l-1.9,7.1h-6.9c-2.8,0-5,2.2-5,5v19.6
		c0,2.8,2.2,5,5,5h31c2.4,0,4.5-1.8,4.9-4.1l1.4,0.4c0.4,0.1,0.8,0.2,1.3,0.2c2.3,0,4.3-1.5,4.8-3.7l5-19
		C-216.8,386.5-218.4,383.7-221.1,383z M-265.4,398.5h6.7v4.1h-6.7V398.5z M-254.1,407.5h-11.4v-1.6h11.4V407.5z M-246.5,407.5h-6.6
		v-1.6h6.6V407.5z M-249.2,397.5c0-3.5,2.8-6.3,6.2-6.3c3.4,0,6.2,2.8,6.2,6.3c0,3.5-2.8,6.3-6.2,6.3
		C-246.4,403.8-249.2,401-249.2,397.5z M-236,407.5h-8.9v-1.6h8.9V407.5z M-226.2,407.1c-0.2,0.6-0.8,1-1.5,0.9l-2.2-0.6v-12.6
		l6.5,1.7L-226.2,407.1z M-221.2,388.2l-1,3.9l-7.8-2.1c-0.4-2.4-2.4-4.2-4.9-4.2H-246l-8.5-2.3l1-3.9c0.1-0.5,0.6-0.9,1.2-0.9
		c0.1,0,0.2,0,0.3,0l30,7.9C-221.4,386.9-221,387.5-221.2,388.2z"/>
	<g>
		<path fill="#FFFFFF" d="M-245.8,395.3h-2c-0.2,0.5-0.4,1-0.4,1.6h2.2C-245.9,396.3-245.9,395.8-245.8,395.3z"/>
		<path fill="#FFFFFF" d="M-238.9,394.1c-0.6-0.7-1.3-1.3-2.2-1.6c0.3,0.5,0.5,1,0.7,1.6H-238.9z"/>
		<path fill="#FFFFFF" d="M-241.3,395.3h-3.3c-0.1,0.5-0.1,1-0.2,1.6h3.7C-241.1,396.3-241.2,395.8-241.3,395.3z"/>
		<path fill="#FFFFFF" d="M-242.9,392.3c-0.4,0-1,0.7-1.4,1.8h2.7C-242,393-242.5,392.3-242.9,392.3z"/>
		<path fill="#FFFFFF" d="M-239.9,396.9h2.2c-0.1-0.6-0.2-1.1-0.4-1.6h-2C-240,395.8-240,396.3-239.9,396.9z"/>
		<path fill="#FFFFFF" d="M-241,402.5c0.9-0.3,1.6-0.9,2.2-1.6h-1.5C-240.5,401.5-240.8,402-241,402.5z"/>
		<path fill="#FFFFFF" d="M-240.1,399.7h2c0.2-0.5,0.4-1,0.4-1.6h-2.2C-240,398.6-240,399.2-240.1,399.7z"/>
		<path fill="#FFFFFF" d="M-241.1,398.1h-3.7c0,0.6,0.1,1.1,0.2,1.6h3.3C-241.2,399.2-241.1,398.7-241.1,398.1z"/>
		<path fill="#FFFFFF" d="M-241.6,400.9h-2.7c0.4,1.2,0.9,1.8,1.4,1.8C-242.5,402.7-242,402-241.6,400.9z"/>
		<path fill="#FFFFFF" d="M-245.9,398.1h-2.2c0.1,0.6,0.2,1.1,0.4,1.6h2C-245.9,399.2-245.9,398.6-245.9,398.1z"/>
		<path fill="#FFFFFF" d="M-245.5,394.1c0.2-0.6,0.4-1.2,0.7-1.6c-0.9,0.3-1.6,0.9-2.2,1.6H-245.5z"/>
		<path fill="#FFFFFF" d="M-247,400.9c0.6,0.7,1.3,1.3,2.2,1.6c-0.3-0.5-0.5-1-0.7-1.6H-247z"/>
	</g>
</g>
</svg>
