<?xml version="1.0" encoding="utf-8"?>
<!-- Generator: Adobe Illustrator 18.1.0, SVG Export Plug-In . SVG Version: 6.00 Build 0)  -->
<svg version="1.1" id="Layer_1" xmlns="http://www.w3.org/2000/svg" xmlns:xlink="http://www.w3.org/1999/xlink" x="0px" y="0px"
	 viewBox="-275 367 60 60" enable-background="new -275 367 60 60" xml:space="preserve">
<path fill="#FFFFFF" d="M-235.8,375.9h-2.5v-2c0-0.8-0.7-1.5-1.5-1.5c-0.8,0-1.5,0.7-1.5,1.5v2H-255c-1.7,0-3,1.4-3,3v37.8
	c0,1.7,1.4,3,3,3h19.3c1.7,0,3-1.4,3-3V379C-232.7,377.3-234.1,375.9-235.8,375.9z M-251.7,417.2h-2.5c-0.7,0-1.3-0.6-1.3-1.3
	c0-0.7,0.6-1.3,1.3-1.3h2.5c0.7,0,1.3,0.6,1.3,1.3C-250.5,416.7-251,417.2-251.7,417.2z M-251.7,412.2h-2.5c-0.7,0-1.3-0.6-1.3-1.3
	c0-0.7,0.6-1.3,1.3-1.3h2.5c0.7,0,1.3,0.6,1.3,1.3C-250.5,411.6-251,412.2-251.7,412.2z M-251.7,407.1h-2.5c-0.7,0-1.3-0.6-1.3-1.3
	s0.6-1.3,1.3-1.3h2.5c0.7,0,1.3,0.6,1.3,1.3S-251,407.1-251.7,407.1z M-244.1,417.2h-2.5c-0.7,0-1.3-0.6-1.3-1.3
	c0-0.7,0.6-1.3,1.3-1.3h2.5c0.7,0,1.3,0.6,1.3,1.3C-242.8,416.7-243.4,417.2-244.1,417.2z M-244.1,412.2h-2.5
	c-0.7,0-1.3-0.6-1.3-1.3c0-0.7,0.6-1.3,1.3-1.3h2.5c0.7,0,1.3,0.6,1.3,1.3C-242.8,411.6-243.4,412.2-244.1,412.2z M-244.1,407.1
	h-2.5c-0.7,0-1.3-0.6-1.3-1.3s0.6-1.3,1.3-1.3h2.5c0.7,0,1.3,0.6,1.3,1.3S-243.4,407.1-244.1,407.1z M-245.4,402
	c-1.4,0-2.5-1.1-2.5-2.5c0-1.4,1.1-2.5,2.5-2.5c1.4,0,2.5,1.1,2.5,2.5C-242.8,400.9-244,402-245.4,402z M-236.5,417.2h-2.5
	c-0.7,0-1.3-0.6-1.3-1.3c0-0.7,0.6-1.3,1.3-1.3h2.5c0.7,0,1.3,0.6,1.3,1.3C-235.2,416.7-235.8,417.2-236.5,417.2z M-236.5,412.2
	h-2.5c-0.7,0-1.3-0.6-1.3-1.3c0-0.7,0.6-1.3,1.3-1.3h2.5c0.7,0,1.3,0.6,1.3,1.3C-235.2,411.6-235.8,412.2-236.5,412.2z
	 M-236.5,407.1h-2.5c-0.7,0-1.3-0.6-1.3-1.3s0.6-1.3,1.3-1.3h2.5c0.7,0,1.3,0.6,1.3,1.3S-235.8,407.1-236.5,407.1z M-235.2,394.4
	h-20.3v-16h20.3V394.4z"/>
</svg>
