<?xml version="1.0" encoding="utf-8"?>
<!-- Generator: Adobe Illustrator 18.1.0, SVG Export Plug-In . SVG Version: 6.00 Build 0)  -->
<svg version="1.1" id="Layer_1" xmlns="http://www.w3.org/2000/svg" xmlns:xlink="http://www.w3.org/1999/xlink" x="0px" y="0px"
	 viewBox="0 0 60 60" enable-background="new 0 0 60 60" xml:space="preserve">
<g>
	<path fill="#FFFFFF" d="M36.6,42.1H16.9c-0.8,0-1.5,0.7-1.5,1.5c0,0.8,0.7,1.5,1.5,1.5h19.7c0.8,0,1.5-0.7,1.5-1.5
		C38.1,42.8,37.4,42.1,36.6,42.1z"/>
	<path fill="#FFFFFF" d="M42.4,42.1c-1.1,0-1.9,0.9-1.9,1.9s0.9,1.9,1.9,1.9c1.1,0,1.9-0.9,1.9-1.9S43.5,42.1,42.4,42.1z"/>
	<path fill="#FFFFFF" d="M47.6,42.1c-1.1,0-1.9,0.9-1.9,1.9s0.9,1.9,1.9,1.9c1.1,0,1.9-0.9,1.9-1.9S48.6,42.1,47.6,42.1z"/>
	<path fill="#FFFFFF" d="M54.9,36.3H6c-0.9,0-1.7,0.9-1.7,1.9v11.4c0,1.1,0.8,1.9,1.7,1.9h2.6c0.1,1,0.8,1.7,1.7,1.7h4
		c0.9,0,1.6-0.7,1.7-1.7H45c0.1,1,0.8,1.7,1.7,1.7h4c0.9,0,1.6-0.7,1.7-1.7h2.5c0.9,0,1.7-0.9,1.7-1.9V38.2
		C56.5,37.1,55.8,36.3,54.9,36.3z M7.7,47.6c0-2.2,0-5.8,0-7.5c2.8,0,37.4,0,45.5,0c0,2.2,0,5.8,0,7.5C50.4,47.6,15.8,47.6,7.7,47.6
		z"/>
	<path fill="#FFFFFF" d="M19.7,14l1.5,2.6c0.4,0.8,0.9,1.6,1.3,2.3h0.1c0.4-0.8,0.8-1.6,1.2-2.4l1.4-2.5h5.3l-5.2,7.5l5.2,8.2h-5.5
		l-1.6-2.8c-0.4-0.8-0.8-1.6-1.2-2.4h-0.1c-0.4,0.8-0.8,1.6-1.2,2.4l-1.5,2.8h-5.4l5.3-8L14.3,14H19.7z"/>
	<path fill="#FFFFFF" d="M32.1,29.7v-3l2.7-2.4c4.6-4.1,6.8-6.4,6.8-8.9c0-1.7-1-3-3.4-3c-1.8,0-3.4,0.9-4.5,1.7l-1.4-3.5
		c1.6-1.2,4-2.2,6.8-2.2c4.7,0,7.3,2.8,7.3,6.6c0,3.5-2.5,6.3-5.6,9L39,25.7v0.1h7.9v4H32.1z"/>
</g>
</svg>
