<?xml version="1.0" encoding="utf-8"?>
<!-- Generator: Adobe Illustrator 18.1.0, SVG Export Plug-In . SVG Version: 6.00 Build 0)  -->
<svg version="1.1" id="Layer_1" xmlns="http://www.w3.org/2000/svg" xmlns:xlink="http://www.w3.org/1999/xlink" x="0px" y="0px"
	 viewBox="0 0 60 60" enable-background="new 0 0 60 60" xml:space="preserve">
<g>
	<g>
		<path fill="#FFFFFF" d="M12.1,9.2C6.2,9.2,1.3,14,1.3,19.9c0,5.9,4.8,10.7,10.7,10.7c5.9,0,10.7-4.8,10.7-10.7
			C22.8,14,18,9.2,12.1,9.2z M17.1,17.6c0,0.3-0.3,0.6-0.6,0.6h-2.9c-0.3,0-0.6-0.3-0.6-0.6v-2.6c0-0.3-0.3-0.5-0.8-0.5
			c-0.5,0-0.9,0.2-0.9,0.5v1.6c0,0.3,0.2,0.7,0.5,1c0.3,0.3,1.1,0.9,2.4,1.8l1,0.7c0.6,0.5,1,0.8,1.2,1c0.4,0.4,0.6,0.9,0.6,1.5v1.8
			c0,1.5-1,2.4-3,2.6v1c0,0.2-0.1,0.3-0.2,0.4c-0.1,0.1-0.3,0.2-0.4,0.2h-2.8c-0.2,0-0.3-0.1-0.4-0.2c-0.1-0.1-0.2-0.3-0.2-0.4l0-1
			c-1.9-0.3-3-1.1-3-2.3v-2.6c0-0.3,0.3-0.6,0.6-0.6h2.9c0.2,0,0.3,0.1,0.4,0.2c0.1,0.1,0.2,0.3,0.2,0.4v2.6c0,0.3,0.3,0.5,0.8,0.5
			c0,0,0,0,0,0c0.5,0,0.9-0.2,0.9-0.5v-1.6c0-0.3-0.2-0.7-0.5-1c-0.3-0.3-1.1-0.9-2.4-1.8l-1-0.7c-0.6-0.5-1-0.8-1.2-1
			c-0.4-0.4-0.6-0.9-0.6-1.5v-1.8c0-1.5,1-2.4,3-2.6v-1c0-0.3,0.3-0.6,0.6-0.6h2.8c0.2,0,0.3,0.1,0.4,0.2c0.1,0.1,0.2,0.3,0.2,0.4v1
			c1.9,0.3,3,1.1,3,2.3V17.6z"/>
	</g>
	<path fill="#FFFFFF" d="M56.7,17.2H24.6c0.2,0.9,0.3,1.8,0.3,2.7c0,0.3,0,0.5,0,0.8h15.8c1.6,0,2.8,1.1,2.8,2.5v19.2
		c0,1.4-1.2,2.7-2.8,2.7H15.6c-1.6,0-2.8-1.3-2.8-2.7v-9.7c-0.3,0-0.5,0-0.8,0c-0.9,0-1.8-0.1-2.6-0.3v14.9c0,0.6,0.5,1.1,1.1,1.1
		h46.1c0.6,0,1.1-0.5,1.1-1.1V18.3C57.9,17.7,57.4,17.2,56.7,17.2z M50.6,34.4c-1.3,0-2.3-1-2.3-2.3c0-1.3,1-2.3,2.3-2.3
		c1.3,0,2.3,1,2.3,2.3C52.8,33.4,51.8,34.4,50.6,34.4z M50.6,27.1c-1.3,0-2.3-1-2.3-2.3c0-1.3,1-2.3,2.3-2.3c1.3,0,2.3,1,2.3,2.3
		C52.8,26.1,51.8,27.1,50.6,27.1z"/>
</g>
</svg>
