<?xml version="1.0" encoding="utf-8"?>
<!-- Generator: Adobe Illustrator 18.1.0, SVG Export Plug-In . SVG Version: 6.00 Build 0)  -->
<svg version="1.1" id="Layer_1" xmlns="http://www.w3.org/2000/svg" xmlns:xlink="http://www.w3.org/1999/xlink" x="0px" y="0px"
	 viewBox="-275 367 60 60" enable-background="new -275 367 60 60" xml:space="preserve">
<g>
	<g>
		<g>
			<path fill="#FFFFFF" d="M-256.3,388.4h18.5c0.6,0,1.2-0.5,1.2-1.2c0-0.6-0.5-1.2-1.2-1.2h-18.5c-0.6,0-1.2,0.5-1.2,1.2
				S-257,388.4-256.3,388.4z"/>
			<path fill="#FFFFFF" d="M-246.3,400.8h-10c-0.6,0-1.2,0.5-1.2,1.2c0,0.6,0.5,1.2,1.2,1.2h10.5
				C-246.1,402.4-246.2,401.6-246.3,400.8z"/>
			<path fill="#FFFFFF" d="M-246.4,410.1h-13.1v-25.3h5.7c0.7,0,1.2-0.5,1.2-1.2v-5.2h17.1v9.3h3.1v-10.8c0-0.9-0.7-1.5-1.5-1.5
				H-254c-0.4,0-0.8,0.2-1.1,0.4l-7,6.7c-0.3,0.3-0.5,0.7-0.5,1.1v28.1c0,0.9,0.7,1.5,1.5,1.5h12.7L-246.4,410.1z"/>
			<path fill="#FFFFFF" d="M-245.2,395.9h-11.1c-0.6,0-1.2,0.5-1.2,1.2c0,0.6,0.5,1.2,1.2,1.2h10.3
				C-245.9,397.4-245.6,396.6-245.2,395.9z"/>
			<path fill="#FFFFFF" d="M-239.1,391.4l0.1-0.4h-17.3c-0.6,0-1.2,0.5-1.2,1.2c0,0.6,0.5,1.2,1.2,1.2h13.3
				C-241.9,392.5-240.6,391.8-239.1,391.4z"/>
		</g>
	</g>
	<path fill="#FFFFFF" d="M-233.9,402.5c2.2,1.3,4.7,3,4.7,6.8c0,3.7-2.7,6.5-6.3,7.5l-0.6,3.8h-5.9l0.6-3.5c-2.4-0.4-5-1.7-5.8-2.7
		l3.2-5.2c1.5,1.3,3.7,2.3,5.3,2.3c1.3,0,2.2-0.3,2.2-1.5c0-1.2-1-1.9-2.4-2.6c-2.4-1.2-5.6-2.6-5.6-6.9c0-4,2.8-6.7,6.7-7.5
		l0.5-3.3h5.9l-0.6,3.5c1.9,0.5,3.3,1.1,4.6,2.1l-2.9,4.7c-2-1.3-3.7-1.8-5-1.8c-0.8,0-2,0.3-2,1.5
		C-237.2,400.8-235.7,401.5-233.9,402.5z"/>
</g>
</svg>
