<?xml version="1.0" encoding="utf-8"?>
<!-- Generator: Adobe Illustrator 18.1.0, SVG Export Plug-In . SVG Version: 6.00 Build 0)  -->
<svg version="1.1" id="Layer_1" xmlns="http://www.w3.org/2000/svg" xmlns:xlink="http://www.w3.org/1999/xlink" x="0px" y="0px"
	 viewBox="-275 367 60 60" enable-background="new -275 367 60 60" xml:space="preserve">
<g>
	<path fill="#FFFFFF" d="M-246.1,406.7c-0.8,1.1-0.6,2.7-2.7,2.2c-0.9-0.2-2.8-3.4-4.1-5.6c-1.1-2.1-3.4-6.8-3-7.8
		c0.7-2,2-0.9,3.3-1c0.5,0,3.2-7.3-2.2-16.6c-0.2-0.3-1.1-0.6-1.9-0.2c-2.5,1.1-5.3,2.3-7.2,5.9c-1.4,2.7-3.5,7.1,1.9,19.5
		c0.4,1.2,1.1,2.7,2.2,4.6c0.2,0.4,0.4,0.7,0.6,1c7.6,12.4,12.5,13.2,15.6,13.6c4,0.5,6.7-1.2,9-2.6c0.8-0.5,1-1.4,0.9-1.7
		C-238.2,408.2-245.8,406.3-246.1,406.7z M-257.9,407c-0.2-0.3-0.4-0.5-0.6-0.8c-1-1.6-1.7-2.8-2-3.8c-5-10.3-3.4-14-2.3-16.3
		c1.5-3.1,3.8-4.2,5.9-5.3c0.7-0.3,1.4-0.1,1.6,0.1c0.3,0.4,0.5,0.9,0.8,1.3c0,0-0.1,0-0.2,0.1c-2.1,0.9-4.5,1.9-6.1,5
		c-1.2,2.3-3,5.9,1.5,16.4c0.3,1,0.9,2.3,1.8,3.9c0,0,0,0.1,0,0.1C-257.6,407.5-257.8,407.2-257.9,407z"/>
</g>
<g>
	<path fill="#FFFFFF" d="M-239.1,404.7l0.7-3.5c-2.3-0.1-4.7-1.1-5.8-2l1.7-4c1.4,1,3.3,1.9,5.9,1.9c2.2,0,3.8-1,3.8-2.6
		c0-1.3-0.9-2.2-3.2-3.2c-2.9-1.5-5.4-3.3-5.4-6.4c0-3.7,3-6.6,7.5-7.1l0.7-3.3h3.5l-0.6,3.3c2.1,0.1,3.9,0.7,4.8,1.4l-1.7,4
		c-0.9-0.6-2.6-1.3-5.1-1.3c-2.1,0-3.3,1.1-3.3,2.3c0,1.2,1,1.9,3.7,3.3c2.9,1.4,4.9,3.4,4.9,6.4c0,4.5-3.7,7-7.9,7.5l-0.7,3.6
		H-239.1z"/>
</g>
</svg>
