<?xml version="1.0" encoding="utf-8"?>
<!-- Generator: Adobe Illustrator 18.1.0, SVG Export Plug-In . SVG Version: 6.00 Build 0)  -->
<svg version="1.1" id="Layer_1" xmlns="http://www.w3.org/2000/svg" xmlns:xlink="http://www.w3.org/1999/xlink" x="0px" y="0px"
	 viewBox="0 0 60 60" enable-background="new 0 0 60 60" xml:space="preserve">
<g>
	<path fill="#FFFFFF" d="M11.9,7.6C5.9,7.6,1,12.5,1,18.5c0,6,4.9,10.9,10.9,10.9c6,0,10.9-4.9,10.9-10.9
		C22.8,12.5,17.9,7.6,11.9,7.6z M13.5,20.4L12,21l-0.5-1.2l-0.9,0.5L10,19.1l1-0.5l-3.2-7.6l1.5-0.6l3.1,7.5l3.5-1.8l0.7,1.3
		L13,19.1L13.5,20.4z"/>
	<path fill="#FFFFFF" d="M57.1,15.8H24.5c0.2,0.9,0.3,1.8,0.3,2.7c0,0.3,0,0.5,0,0.8h16c1.6,0,2.8,1.1,2.8,2.5v19.4
		c0,1.4-1.2,2.7-2.8,2.7H15.5c-1.6,0-2.9-1.3-2.9-2.7v-9.8c-0.3,0-0.5,0-0.8,0c-0.9,0-1.8-0.1-2.6-0.3v15.1c0,0.6,0.5,1.1,1.2,1.1
		h46.7c0.6,0,1.2-0.5,1.2-1.1V16.9C58.3,16.3,57.8,15.8,57.1,15.8z M50.9,33.2c-1.3,0-2.3-1-2.3-2.3s1-2.3,2.3-2.3
		c1.3,0,2.3,1,2.3,2.3S52.1,33.2,50.9,33.2z M50.9,25.8c-1.3,0-2.3-1-2.3-2.3c0-1.3,1-2.3,2.3-2.3c1.3,0,2.3,1,2.3,2.3
		C53.2,24.8,52.1,25.8,50.9,25.8z"/>
	<path fill="#FFFFFF" d="M34.7,28.9c0,0.3-0.3,0.6-0.6,0.6h-2.9c-0.3,0-0.6-0.3-0.6-0.6v-2.6c0-0.3-0.3-0.5-0.8-0.5
		c-0.5,0-0.9,0.2-0.9,0.5V28c0,0.4,0.2,0.7,0.6,1.1c0.3,0.3,1.1,0.9,2.4,1.9l1,0.7c0.6,0.5,1,0.8,1.2,1c0.4,0.4,0.6,0.9,0.6,1.5v1.8
		c0,1.5-1,2.4-3,2.7v1c0,0.2-0.1,0.3-0.2,0.4c-0.1,0.1-0.3,0.2-0.4,0.2h-2.9c-0.2,0-0.3-0.1-0.4-0.2c-0.1-0.1-0.2-0.3-0.2-0.4l0-1
		c-1.9-0.4-3.1-1.1-3.1-2.4v-2.6c0-0.3,0.3-0.6,0.6-0.6h2.9c0.2,0,0.3,0.1,0.4,0.2c0.1,0.1,0.2,0.3,0.2,0.4v2.6
		c0,0.3,0.3,0.5,0.8,0.5c0,0,0,0,0,0c0.5,0,0.9-0.2,0.9-0.5v-1.7c0-0.4-0.2-0.7-0.6-1.1c-0.3-0.3-1.1-0.9-2.4-1.9l-1-0.7
		c-0.6-0.5-1-0.8-1.2-1c-0.4-0.4-0.6-0.9-0.6-1.5v-1.8c0-1.5,1-2.4,3-2.7v-1c0-0.3,0.3-0.6,0.6-0.6h2.9c0.2,0,0.3,0.1,0.4,0.2
		c0.1,0.1,0.2,0.3,0.2,0.4v1c1.9,0.4,3.1,1.1,3.1,2.4V28.9z"/>
</g>
</svg>
