<?xml version="1.0" encoding="utf-8"?>
<!-- Generator: Adobe Illustrator 18.1.0, SVG Export Plug-In . SVG Version: 6.00 Build 0)  -->
<svg version="1.1" id="Layer_1" xmlns="http://www.w3.org/2000/svg" xmlns:xlink="http://www.w3.org/1999/xlink" x="0px" y="0px"
	 viewBox="0 0 60 60" enable-background="new 0 0 60 60" xml:space="preserve">
<g>
	<g>
		<path fill="#FFFFFF" d="M37.6,43.5H18c-0.8,0-1.5,0.7-1.5,1.5c0,0.8,0.7,1.5,1.5,1.5h19.7c0.8,0,1.5-0.7,1.5-1.5
			C39.2,44.2,38.5,43.5,37.6,43.5z"/>
		<path fill="#FFFFFF" d="M43.5,43.5c-1.1,0-1.9,0.9-1.9,1.9c0,1.1,0.9,1.9,1.9,1.9c1.1,0,1.9-0.9,1.9-1.9
			C45.4,44.3,44.5,43.5,43.5,43.5z"/>
		<path fill="#FFFFFF" d="M48.6,43.5c-1.1,0-1.9,0.9-1.9,1.9c0,1.1,0.9,1.9,1.9,1.9c1.1,0,1.9-0.9,1.9-1.9
			C50.5,44.3,49.7,43.5,48.6,43.5z"/>
		<path fill="#FFFFFF" d="M55.9,37.6H7c-0.9,0-1.7,0.9-1.7,1.9v11.4c0,1.1,0.8,1.9,1.7,1.9h2.6c0.1,1,0.8,1.7,1.7,1.7h4
			c0.9,0,1.6-0.7,1.7-1.7h29.2c0.1,1,0.8,1.7,1.7,1.7h4c0.9,0,1.6-0.7,1.7-1.7h2.5c0.9,0,1.7-0.9,1.7-1.9V39.6
			C57.6,38.5,56.8,37.6,55.9,37.6z M8.7,49c0-2.2,0-5.8,0-7.5c2.8,0,37.4,0,45.5,0c0,2.2,0,5.8,0,7.5C51.4,49,16.8,49,8.7,49z"/>
	</g>
	<g>
		<path fill="#FFFFFF" d="M49.8,28.4c0-0.1,0-0.1,0-0.1c0,0,0-0.1,0-0.1c0,0,0-0.1-0.1-0.1c0,0,0-0.1-0.1-0.1c0,0,0,0,0-0.1
			c0,0,0,0,0-0.1c0,0-0.1-0.1-0.1-0.1c0,0-0.1-0.1-0.1-0.1c0,0-0.1-0.1-0.1-0.1c0,0-0.1-0.1-0.1-0.1c0,0,0,0-0.1,0l-6.3-3.6
			l-7.3-4.2l0.1-5.5c0.6-0.1,1.1-0.5,1.4-1c0.6-1.1,0.3-2.4-0.8-3c-1.1-0.6-2.4-0.3-3,0.8c-0.3,0.5-0.4,1.1-0.2,1.6L28,15.2
			L14.4,7.3c-0.5-0.3-1-0.3-1.5,0c-0.5,0.3-0.7,0.7-0.8,1.3c-0.2,8.9,4.4,17.2,12.1,21.7c2.2,1.3,4.5,2.2,7,2.7
			c6.1,1.3,12.4,0.3,17.7-3l0,0c0,0,0.1,0,0.1-0.1c0,0,0,0,0.1,0c0,0,0.1-0.1,0.1-0.1c0,0,0.1-0.1,0.1-0.1c0,0,0.1-0.1,0.1-0.1
			c0,0,0.1-0.1,0.1-0.1c0,0,0,0,0-0.1c0,0,0,0,0-0.1c0,0,0-0.1,0.1-0.1c0,0,0-0.1,0-0.1c0-0.1,0-0.1,0-0.1c0,0,0-0.1,0-0.1
			c0,0,0-0.1,0-0.1C49.8,28.5,49.8,28.5,49.8,28.4z M32.5,15.9c0,0.6,0,1.2,0,1.8L31,16.9C31.5,16.6,32,16.2,32.5,15.9z M43.8,29.1
			l-3.2-1.8L21.2,16.2c-0.7-0.4-1.6-0.2-2,0.5c-0.4,0.7-0.2,1.6,0.5,2l19.4,11.1c0,0,0,0,0,0l0.5,0.3c-2.6,0.4-5.2,0.3-7.8-0.2
			c-2.1-0.5-4.2-1.3-6.1-2.4c-6-3.5-9.9-9.6-10.5-16.4c4,2.3,26.1,15,26.1,15l3.9,2.3C44.7,28.7,44.2,28.9,43.8,29.1z"/>
	</g>
</g>
</svg>
