<?xml version="1.0" encoding="utf-8"?>
<!-- Generator: Adobe Illustrator 18.1.0, SVG Export Plug-In . SVG Version: 6.00 Build 0)  -->
<svg version="1.1" id="Layer_1" xmlns="http://www.w3.org/2000/svg" xmlns:xlink="http://www.w3.org/1999/xlink" x="0px" y="0px"
	 viewBox="0 0 60 60" enable-background="new 0 0 60 60" xml:space="preserve">
<g>
	<path fill="#FFFFFF" d="M31.9,41.8L30,38.5c-0.2-0.4-0.5-0.6-0.9-0.8c-1.5-0.5-3-1.2-4.5-2c-0.4-0.2-0.9-0.3-1.3-0.2
		c-0.4,0.1-0.8,0.4-1,0.8l-8.1,14.1c0,0,0,0,0,0c0,0,0,0.1,0,0.1c0,0,0,0,0,0.1c0,0,0,0.1,0,0.1c0,0,0,0,0,0.1c0,0,0,0.1,0,0.1
		c0,0,0,0.1,0,0.1c0,0,0,0,0,0.1c0,0,0,0.1,0,0.1c0,0,0,0,0,0.1c0,0,0,0.1,0,0.1c0,0,0,0,0,0c0,0,0,0,0,0c0,0,0,0.1,0,0.1
		c0,0,0,0.1,0,0.1c0,0,0,0,0,0.1c0,0,0,0.1,0,0.1c0,0,0,0,0,0.1c0,0,0,0.1,0,0.1c0,0,0,0,0,0c0,0,0,0.1,0,0.1c0,0,0,0,0,0.1
		c0,0,0,0.1,0,0.1c0,0,0,0,0,0c0,0,0,0.1,0.1,0.1c0,0,0,0,0,0.1c0,0,0,0,0.1,0.1c0,0,0,0,0,0c0,0,0.1,0.1,0.1,0.1c0,0,0,0,0,0
		c0,0,0.1,0.1,0.1,0.1c0,0,0,0,0,0c0.2,0.1,0.4,0.2,0.6,0.3c0,0,0,0,0,0c0,0,0.1,0,0.1,0c0,0,0,0,0,0c0,0,0.1,0,0.1,0c0,0,0,0,0.1,0
		c0,0,0,0,0,0h19.8c0.6,0,1.2-0.3,1.5-0.8c0.3-0.5,0.3-1.2,0-1.7L31.9,41.8z M18.5,49.6c2-3.4,5.3-9.2,5.9-10.2
		c0.9,0.5,1.9,0.9,2.9,1.3c0.4,0.7,1.7,2.9,1.7,2.9s2,3.5,3.5,6.1C30.4,49.6,22.8,49.6,18.5,49.6z"/>
	<path fill="#FFFFFF" d="M54.1,32.4c0-0.1,0-0.1,0-0.2c0-0.1,0-0.1,0-0.2c0,0,0-0.1-0.1-0.1c0-0.1,0-0.1-0.1-0.2c0,0,0,0,0-0.1
		c0,0,0,0,0-0.1c0-0.1-0.1-0.1-0.1-0.1c0,0-0.1-0.1-0.1-0.1c0,0-0.1-0.1-0.1-0.1c0,0-0.1-0.1-0.1-0.1c0,0,0,0-0.1,0L46.2,27L38,22.3
		l0.1-6.2c0.6-0.2,1.2-0.6,1.5-1.2c0.7-1.2,0.3-2.7-0.9-3.4c-1.2-0.7-2.7-0.3-3.4,0.9c-0.3,0.6-0.4,1.2-0.3,1.8l-5.4,3.2L14.2,8.5
		c-0.5-0.3-1.1-0.3-1.7,0C12,8.8,11.7,9.4,11.7,10c-0.3,10,5,19.4,13.7,24.4c2.5,1.4,5.1,2.4,7.8,3c6.9,1.5,13.9,0.3,20-3.3l0,0
		c0,0,0.1-0.1,0.1-0.1c0,0,0,0,0.1,0c0,0,0.1-0.1,0.1-0.1c0,0,0.1-0.1,0.1-0.1c0,0,0.1-0.1,0.1-0.1c0,0,0.1-0.1,0.1-0.1
		c0,0,0,0,0-0.1c0,0,0,0,0-0.1c0-0.1,0-0.1,0.1-0.2c0-0.1,0-0.1,0-0.1c0-0.1,0-0.1,0-0.2c0-0.1,0-0.1,0-0.2c0-0.1,0-0.1,0-0.2
		C54.1,32.5,54.1,32.4,54.1,32.4z M34.7,18.3c0,0.7,0,1.4,0,2l-1.7-1C33.5,19,34.1,18.7,34.7,18.3z M47.3,33.2l-3.6-2.1L21.9,18.6
		c-0.8-0.5-1.8-0.2-2.3,0.6c-0.5,0.8-0.2,1.8,0.6,2.3L42,34c0,0,0,0,0,0l0.6,0.4c-2.9,0.4-5.8,0.4-8.8-0.3c-2.4-0.5-4.7-1.4-6.9-2.7
		C20.3,27.5,15.9,20.6,15.2,13c4.5,2.6,29.4,17,29.4,17l4.4,2.6C48.4,32.7,47.9,33,47.3,33.2z"/>
</g>
</svg>
