<?xml version="1.0" encoding="utf-8"?>
<!-- Generator: Adobe Illustrator 18.1.0, SVG Export Plug-In . SVG Version: 6.00 Build 0)  -->
<svg version="1.1" id="Layer_1" xmlns="http://www.w3.org/2000/svg" xmlns:xlink="http://www.w3.org/1999/xlink" x="0px" y="0px"
	 viewBox="-275 367 60 60" enable-background="new -275 367 60 60" xml:space="preserve">
<g>
	<path fill="#FFFFFF" d="M-247.9,383c-1.5,0.9-2.7,2.3-3.2,4.1h13.6c-0.5-1.8-1.7-3.2-3.3-4.1l6.8-6.8c0.3-0.3,0.3-0.8,0-1
		c-0.3-0.3-0.7-0.3-1,0l-7.2,7.2c-0.7-0.2-1.4-0.3-2.1-0.3h0c-0.8,0-1.5,0.1-2.2,0.3l-7.4-7.4c-0.3-0.3-0.7-0.3-1,0
		c-0.3,0.3-0.3,0.7,0,1L-247.9,383z"/>
	<path fill="#FFFFFF" d="M-221.7,388h-45.4c-0.6,0-1.1,0.5-1.1,1v28.6c0,0.6,0.5,1.1,1.1,1.1h45.4c0.6,0,1.1-0.5,1.1-1.1v-28.6
		C-220.6,388.5-221.1,388-221.7,388z M-227.8,393.3c1.2,0,2.2,1,2.2,2.2s-1,2.2-2.2,2.2s-2.2-1-2.2-2.2S-229.1,393.3-227.8,393.3z
		 M-227.8,400.4c1.2,0,2.2,1,2.2,2.2s-1,2.2-2.2,2.2s-2.2-1-2.2-2.2S-229.1,400.4-227.8,400.4z M-234.9,412.8c0,1.4-1.2,2.6-2.7,2.6
		h-24.3c-1.5,0-2.7-1.2-2.7-2.6v-18.7c0-1.4,1.2-2.5,2.7-2.5h24.3c1.5,0,2.7,1.1,2.7,2.5V412.8z M-225.1,414.2h-5.4
		c-0.2,0-0.4-0.3-0.4-0.8s0.2-0.8,0.4-0.8h5.4c0.2,0,0.4,0.3,0.4,0.8S-224.9,414.2-225.1,414.2z M-225.1,410.5h-5.4
		c-0.2,0-0.4-0.3-0.4-0.8c0-0.4,0.2-0.8,0.4-0.8h5.4c0.2,0,0.4,0.3,0.4,0.8C-224.7,410.2-224.9,410.5-225.1,410.5z"/>
</g>
</svg>
